<?xml version="1.0" encoding="utf-8" ?>
<svg baseProfile="full" height="212.59842" version="1.1" width="248.03149000000002" xmlns="http://www.w3.org/2000/svg" xmlns:ev="http://www.w3.org/2001/xml-events" xmlns:xlink="http://www.w3.org/1999/xlink"><defs /><rect fill="white" height="212.59842" opacity="1" stroke-width="0" width="248.03149000000002" x="0.0" y="0.0" /><g><g id="vlines" stroke="lightgray"><line x1="0.0" x2="0.0" y1="70.86614" y2="177.16535" /><text fill="black" font-family="Verdana" font-size="16" font-weight="bold" stroke="black" stroke-width="0" x="3.543307" y="53.149605">37</text><line x1="35.43307" x2="35.43307" y1="70.86614" y2="177.16535" /><text fill="black" font-family="Verdana" font-size="16" font-weight="bold" stroke="black" stroke-width="0" x="38.976377" y="53.149605">38</text><line x1="70.86614" x2="70.86614" y1="70.86614" y2="177.16535" /><text fill="black" font-family="Verdana" font-size="16" font-weight="bold" stroke="black" stroke-width="0" x="74.409447" y="53.149605">39</text><line x1="106.29921" x2="106.29921" y1="70.86614" y2="177.16535" /><text fill="#800000" font-family="Verdana" font-size="18" font-weight="bold" stroke="#800000" stroke-width="0" x="109.842517" y="35.43307">October</text><text fill="black" font-family="Verdana" font-size="16" font-weight="bold" stroke="black" stroke-width="0" x="109.842517" y="53.149605">40</text><line x1="141.73228" x2="141.73228" y1="70.86614" y2="177.16535" /><text fill="black" font-family="Verdana" font-size="16" font-weight="bold" stroke="black" stroke-width="0" x="145.275587" y="53.149605">41</text><line x1="177.16535" x2="177.16535" y1="70.86614" y2="177.16535" /><text fill="black" font-family="Verdana" font-size="16" font-weight="bold" stroke="black" stroke-width="0" x="180.708657" y="53.149605">42</text><line x1="212.59842" x2="212.59842" y1="70.86614" y2="177.16535" /><text fill="black" font-family="Verdana" font-size="16" font-weight="bold" stroke="black" stroke-width="0" x="216.141727" y="53.149605">43</text><line x1="248.03149000000002" x2="248.03149000000002" y1="70.86614" y2="177.16535" /></g><g id="hlines" stroke="lightgray"><line x1="0.0" x2="248.03149000000002" y1="70.86614" y2="70.86614" /><line x1="0.0" x2="248.03149000000002" y1="106.29921" y2="106.29921" /><line x1="0.0" x2="248.03149000000002" y1="141.73228" y2="141.73228" /><line x1="0.0" x2="248.03149000000002" y1="177.16535" y2="177.16535" /></g><line stroke="black" x1="0.0" x2="248.03149000000002" y1="70.86614" y2="70.86614" /><line stroke="black" x1="0.0" x2="248.03149000000002" y1="177.16535" y2="177.16535" /></g><g><g><text fill="black" font-family="Verdana" font-size="18" stroke="black" stroke-width="0.001" x="10.629921" y="95.669289">Matemáticas 4 Académicas</text><rect fill="purple" height="85.039368" opacity="0.5" stroke="lightgray" stroke-width="0" width="7.086614000000001" x="2.8346456" y="88.582675" /><g><g><text fill="black" font-family="Verdana" font-size="18" stroke="black" stroke-width="0.001" x="31.889763" y="131.102359">Números Reales</text><rect fill="purple" height="49.606297999999995" opacity="0.5" stroke="lightgray" stroke-width="0" width="7.086614000000001" x="24.0944876" y="124.01574500000001" /><g><g id="Numeros_reales"><rect fill="#FF8080" height="28.346456" opacity="0.85" stroke="#FF8080" stroke-width="2" width="99.212596" x="3.543307" y="145.275587" /><rect fill="#909090" height="10.629921" opacity="0.2" stroke="#FF8080" stroke-width="1" width="99.212596" x="3.543307" y="162.992122" /><text fill="black" font-family="Verdana" font-size="15" stroke="black" stroke-width="0.001" x="7.086614" y="159.448815">Numeros reales</text></g></g></g></g></g><g><g /><g><g /><g /><g /></g></g></g></svg>